<svg xmlns="http://www.w3.org/2000/svg" viewBox="0 0 186 88.61"><defs><style>.cls-1{fill:#213a8e;}.cls-2{fill:#fff;}</style></defs><g id="Capa_2" data-name="Capa 2"><g id="Capa_1-2" data-name="Capa 1"><path class="cls-1" d="M125.59,69.68c1.74.09,7,0,7,0a4.84,4.84,0,0,0,1.08-.13,4.32,4.32,0,0,0,1,.13h2a7.53,7.53,0,0,0,3.1,5.62,6.75,6.75,0,0,0,4,1.33,6.19,6.19,0,0,0,2.32-.46,4.94,4.94,0,0,0,3-4.58,4.84,4.84,0,0,0-.83-2.72l.17-.79a10,10,0,0,0,5.49,1.64,5.07,5.07,0,0,0,3.35-1.26,10.54,10.54,0,0,0,4,1c.23,0,.45,0,.67,0a10.64,10.64,0,0,0,3.38-.55.63.63,0,0,1,.79.44l.8,3.06a7.24,7.24,0,0,0,7,5.4,7.3,7.3,0,0,0,3.82-1.07,18.57,18.57,0,0,0,6.82-7.15,12.59,12.59,0,0,0,.71-10.33,10.77,10.77,0,0,0-2.33-3.68l.36-1.34a5.83,5.83,0,0,0-3-6.73,6.24,6.24,0,0,0-1.88-.59c-4.36-.73-7.81-.17-10.25,1.65a8,8,0,0,0-.92.81,10.77,10.77,0,0,0-4.7-1.41,10.92,10.92,0,0,0-3.87.47,5.37,5.37,0,0,0-2.22-2.66,6.46,6.46,0,0,0-2-.81,4.58,4.58,0,0,0-2.57-3.65,4.89,4.89,0,0,0-4.66.31,7.41,7.41,0,0,0-3.62,6,13,13,0,0,0-5.16-.44,4.9,4.9,0,0,0-1.53-.24h-2a4.7,4.7,0,0,0-3.4,1.45,8.53,8.53,0,0,0-3.39-.7h-3.76a5.41,5.41,0,0,0-1.34.17,11.13,11.13,0,0,0-13-1.46,10.82,10.82,0,0,0-3.74,3.36,10.87,10.87,0,0,0-10.54-1.1,4.92,4.92,0,0,0-1.27-.89,6.18,6.18,0,0,0-2.54-.56H89.81A10.88,10.88,0,0,0,89.59,45a17.81,17.81,0,0,0,3.77-4.86h0a12.55,12.55,0,0,0,.71-10.33,10.62,10.62,0,0,0-2.33-3.68l.36-1.33a5.83,5.83,0,0,0-3-6.74,6.37,6.37,0,0,0-1.87-.59c-4.37-.73-7.82-.17-10.26,1.66l-.24.19a10.83,10.83,0,0,0-6.31-2,11,11,0,0,0-3.36.53,5.42,5.42,0,0,0-2-2.28,6.67,6.67,0,0,0-2-.81,4.61,4.61,0,0,0-2.6-3.66,4.91,4.91,0,0,0-4.73.37l-.36.24a5.73,5.73,0,0,0-1.65-.43V5.41A5.12,5.12,0,0,0,51.65,1.2a4.94,4.94,0,0,0-5-.45l-.93.44L45.45,1A5,5,0,0,0,40.64.75L38,2a5.75,5.75,0,0,0-3.24,4.09,5.6,5.6,0,0,0,1.6,5.05V18a10.89,10.89,0,0,0-9.63.81,13.19,13.19,0,0,0-.85-1.12,11,11,0,0,0,1.35-5.32v-.76A11.1,11.1,0,0,0,16.11.55H8.52A5.18,5.18,0,0,0,3.09,1a5.25,5.25,0,0,0-1.5,6.64V30.35A5.93,5.93,0,0,0,.2,32.88l0,.09a5.11,5.11,0,0,0,4.93,6.46H16.3a12.57,12.57,0,0,0,8.5-3.31,10.91,10.91,0,0,0,7.54,3A10.74,10.74,0,0,0,37.17,38a4.72,4.72,0,0,0,3.21,1.28h3.33A4.77,4.77,0,0,0,45,39.1a4.84,4.84,0,0,0,1.32.19h3.32a4.6,4.6,0,0,0,1-.11,4.62,4.62,0,0,0,1,.11h3.14a4.79,4.79,0,0,0,3-1,10,10,0,0,0,4.74,1.19,5.08,5.08,0,0,0,3.39-1.29l.49.22a20.52,20.52,0,0,0-2.67,2.75,15.87,15.87,0,0,0-3.45,9.72l0,1.41v.12c.28,6.65,3,12.28,8.62,17.72L81.18,82a9.8,9.8,0,0,1,2.38,3.61,4.55,4.55,0,0,0,4.28,3H88a4.54,4.54,0,0,0,4.23-3.22L92.94,83a10.37,10.37,0,0,0-3.88-11.42l-1-.7a1,1,0,0,1,.12-1.64,4.6,4.6,0,0,0,1.63-1.41,4.52,4.52,0,0,0,.66-1.27.91.91,0,0,1,1.52-.3A10.87,10.87,0,0,0,105.88,68,28.32,28.32,0,0,0,116,79.36a4.94,4.94,0,0,0,2.76.84,5,5,0,0,0,1.81-.34,5.93,5.93,0,0,0,3.17-3.94,7.46,7.46,0,0,0-.55-4.71,1.21,1.21,0,0,1,1.36-1.67,7.87,7.87,0,0,0,1,.14"/><path class="cls-2" d="M32.34,21.46a6.76,6.76,0,1,0,6.75,6.75,6.76,6.76,0,0,0-6.75-6.75m0,10.7a3.95,3.95,0,1,1,3.94-3.95,4,4,0,0,1-3.94,3.95"/><path class="cls-2" d="M70.45,21.46a6.76,6.76,0,1,0,6.75,6.75,6.76,6.76,0,0,0-6.75-6.75m0,10.7a3.95,3.95,0,1,1,3.94-3.95,4,4,0,0,1-3.94,3.95"/><path class="cls-2" d="M43.71,35.11H40.38a.5.5,0,0,1-.47-.68l0-.07a9.76,9.76,0,0,0,.58-3.3V9.37a.88.88,0,0,0-.65-.85,1.42,1.42,0,0,1-.24-2.66l2.82-1.34a.8.8,0,0,1,1.15.73l0,25.74a9.82,9.82,0,0,0,.62,3.43.51.51,0,0,1-.47.69"/><path class="cls-2" d="M49.66,35.11H46.34a.51.51,0,0,1-.48-.68l0-.07a9.52,9.52,0,0,0,.58-3.3V9.37a.87.87,0,0,0-.65-.85,1.43,1.43,0,0,1-1.05-1.38,1.41,1.41,0,0,1,.82-1.28l2.81-1.34a.8.8,0,0,1,1.15.73l0,25.74a9.6,9.6,0,0,0,.63,3.43.51.51,0,0,1-.48.69"/><path class="cls-2" d="M54.77,35.11H51.63a.61.61,0,0,1-.58-.82l0-.06a8.9,8.9,0,0,0,.55-3.11v-10s-.37-.14-.43-.25,0-.52,0-.52a.54.54,0,0,1,.53-.54h2.9a.53.53,0,0,1,.54.54,1.42,1.42,0,0,1,0,.51c-.06.11-.43.27-.43.27l0,10a9.09,9.09,0,0,0,.59,3.22.61.61,0,0,1-.57.83"/><path class="cls-2" d="M54.69,17a1.57,1.57,0,1,1-1.57-1.57A1.56,1.56,0,0,1,54.69,17"/><path class="cls-2" d="M56.37,17.71V28.23A8.1,8.1,0,0,0,58,33h0a5.63,5.63,0,0,0,4.54,2.23h0a.86.86,0,0,0,.85-.63l.12-.48a1.15,1.15,0,0,0-1.19-1.38A2.39,2.39,0,0,1,60.49,32l-.06-.07A5.75,5.75,0,0,1,59,27.7V21.53a.48.48,0,0,1,.5-.46h1.77a3.29,3.29,0,0,1,2.18.8V20.11a1.22,1.22,0,0,0-.59-1,2.37,2.37,0,0,0-1.23-.34H58.9V15.21a.47.47,0,0,0-.7-.38,3.26,3.26,0,0,0-1.83,2.88"/><path class="cls-2" d="M19.76,18.27A6.89,6.89,0,0,0,23,12.41v-.76A6.92,6.92,0,0,0,16.1,4.73H7.83a1.56,1.56,0,0,1-1-.32,1.08,1.08,0,0,0-1.27,0,1.05,1.05,0,0,0,0,1.7,5.64,5.64,0,0,1,.18,1.42V32.12a.7.7,0,0,1-.46.66,1.65,1.65,0,0,0-1.07,1.15l0,.15a.93.93,0,0,0,.9,1.17H16.29a8.44,8.44,0,0,0,8.44-8.44V26a8.45,8.45,0,0,0-5-7.69M8.81,7.86h6.68a4.5,4.5,0,0,1,0,9H8.81Zm6.92,24.33H8.81V20.25h6.92a6,6,0,0,1,0,11.94"/><path class="cls-2" d="M89.64,38.21a8.36,8.36,0,0,0,.53-6.93c-1.36-3.53-4.53-4.13-6.62-4.53s-2.1-.53-2.1-1,.1-.4.19-.46c1-.72,4.07-.39,6,.13h0l.46-1.71v0a1.66,1.66,0,0,0-1.31-2.07c-2.08-.36-5.31-.6-7.25.85a4,4,0,0,0-1.61,3.28c0,3.57,3.12,4.16,5,4.51,2,.39,3.34.72,4,2.32a4.84,4.84,0,0,1-.37,4,11.32,11.32,0,0,1-4.42,4.34,9.79,9.79,0,0,0-6.27-1.76c-4.69.41-6.64,1.9-8.84,4.59a11.69,11.69,0,0,0-2.52,7.12v1.3c.24,6,3,10.64,7.35,14.89L84.09,79a13.9,13.9,0,0,1,3.38,5.16.39.39,0,0,0,.74,0l.73-2.38A6.14,6.14,0,0,0,86.61,75C81.8,71.49,73.52,65,69.82,58.84c-1.23-2.05-2.37-6.37-1.63-9.43,1.41-5.79,7.08-6.41,9.24-6a8.69,8.69,0,0,1,3.78,1.67,10.37,10.37,0,0,1,2.89,4.5.59.59,0,0,0,1.11,0,6.83,6.83,0,0,0-.5-5.8l-.12-.2a14.33,14.33,0,0,0,5-5.35"/><path class="cls-2" d="M92.64,51.61a1.8,1.8,0,0,0-.76-.17H83a.29.29,0,0,0-.22.48l.07.07a1.35,1.35,0,0,1,.33.86V63.14a6,6,0,0,1-.32,1.73.59.59,0,0,0,.56.76H86a.59.59,0,0,0,.56-.77,6.32,6.32,0,0,1-.32-2V54.32h5.55a2.11,2.11,0,0,1,.89.21.18.18,0,0,0,.27-.17V52.13a.57.57,0,0,0-.33-.52"/><path class="cls-2" d="M100,52a6.76,6.76,0,1,0,6.76,6.76A6.76,6.76,0,0,0,100,52m0,10.7a3.95,3.95,0,1,1,4-3.94,3.94,3.94,0,0,1-4,3.94"/><path class="cls-2" d="M147.77,48V58.52a8.13,8.13,0,0,0,1.58,4.79,5.6,5.6,0,0,0,4.54,2.23.87.87,0,0,0,.86-.63l.12-.48a1.16,1.16,0,0,0-1.19-1.38,2.4,2.4,0,0,1-1.8-.79l0-.07a5.75,5.75,0,0,1-1.44-4.2V51.82a.48.48,0,0,1,.5-.46h1.77a3.34,3.34,0,0,1,2.18.8V50.4a1.19,1.19,0,0,0-.59-1A2.31,2.31,0,0,0,153,49H150.3V45.51a.47.47,0,0,0-.7-.39A3.27,3.27,0,0,0,147.77,48"/><path class="cls-2" d="M170.89,71.39h0a11.44,11.44,0,0,0,6.72-5.29,4.8,4.8,0,0,0,.37-4c-.61-1.61-1.9-1.93-4-2.32-1.86-.35-5-.94-5-4.51A4,4,0,0,1,170.64,52c1.94-1.45,5.18-1.21,7.25-.85a1.66,1.66,0,0,1,1.32,2.07l-.48,1.76c-1.89-.52-5-.85-6-.13-.08.06-.17.13-.18.46s0,.59,2.1,1,5.26,1,6.61,4.53a8.32,8.32,0,0,1-.52,6.93,14.54,14.54,0,0,1-5.28,5.5,3.09,3.09,0,0,1-4.61-1.83m7.84-16.45h0l.47-1.72Z"/><path class="cls-2" d="M123.23,53v1.86h5.16a1.27,1.27,0,0,1,1.3,1.25.94.94,0,0,1-.95.91H127a5,5,0,0,0-5.15,4.91,3.69,3.69,0,0,0,3.78,3.61h7a.65.65,0,0,0,.65-.66,1.18,1.18,0,0,0-.49-1,.68.68,0,0,1-.29-.57l0-7.24a4.24,4.24,0,0,0-4.33-4.14h-3.75a1.07,1.07,0,0,0-1.1,1M130,63.48h-4.4a1.35,1.35,0,0,1-1.39-1.32A3.23,3.23,0,0,1,127.5,59H130Z"/><path class="cls-2" d="M165.46,61a4.29,4.29,0,0,1-5.25,1.78l4.34-3.8L166,57.76l1.9-1.66a6.39,6.39,0,0,0-1.1-1.71A6.57,6.57,0,1,0,168,61.25ZM159,55.53a4.3,4.3,0,0,1,6.07.37l-6.44,5.69a4.29,4.29,0,0,1,.37-6.06"/><path class="cls-2" d="M119.58,75.45a.83.83,0,0,1-1.24.43c-8-5.27-10.65-12.52-10.5-17.67.11-3.74,1.64-6.76,4.1-8.08,4.67-2.5,8.3.4,9.9,2.71a.67.67,0,0,1-.23,1,3.65,3.65,0,0,1-4-.2,3.45,3.45,0,0,0-3.93-.25c-1.24.67-2.09,2.62-2.16,5-.12,3.91,1.25,9.16,6.93,13.44a3.34,3.34,0,0,1,1.15,3.7"/><path class="cls-2" d="M144.9,64.92c1.08-4.17,2.31-8.89-.22-11.77-1.78-2-4.71-2-6.76-1.62a.6.6,0,0,1-.49-.15.75.75,0,0,0-.52-.2h-2a.5.5,0,0,0-.46.28.39.39,0,0,0,.09.44.61.61,0,0,1,.18.46V64.24a2.83,2.83,0,0,1-.16,1l0,.07a.18.18,0,0,0,.16.24h3.05a.25.25,0,0,0,.24-.25,2.82,2.82,0,0,1-.26-1.18V55.33a.68.68,0,0,1,.57-.67c1.47-.29,3.29-.34,4.07.55,1.43,1.64.38,5.68-.46,8.92a30.63,30.63,0,0,0-1,5c-.16,2,1.92,3.9,3.59,3.21a.77.77,0,0,0,.46-.7v0a.79.79,0,0,0-.22-.53,2.24,2.24,0,0,1-.71-1.79,29.86,29.86,0,0,1,.94-4.35"/></g></g></svg>