<?xml version="1.0" encoding="utf-8"?>
<!-- Generator: Adobe Illustrator 24.2.0, SVG Export Plug-In . SVG Version: 6.00 Build 0)  -->
<svg version="1.1" id="Capa_1" xmlns="http://www.w3.org/2000/svg" xmlns:xlink="http://www.w3.org/1999/xlink" x="0px" y="0px"
	 viewBox="0 0 17.8 2.4" style="enable-background:new 0 0 17.8 2.4;" xml:space="preserve">
<style type="text/css">
	.st0{fill:#FFFFFF;}
</style>
<g id="Capa_2_1_">
	<g id="Capa_1-2">
		<path class="st0" d="M1.8,0.9H0.5V0.1H0v1.3h1.8v0.9h0.5V0.1H1.8V0.9z M0,2.3h0.5V1.7H0V2.3z M14.6,1.2L14.6,1.2
			c0,0.2-0.1,0.4-0.2,0.5c-0.3,0.3-0.7,0.3-1,0c0,0,0,0,0,0c-0.1-0.1-0.2-0.3-0.2-0.5c0-0.2,0.1-0.4,0.2-0.5
			c0.1-0.1,0.3-0.2,0.5-0.2c0.2,0,0.4,0.1,0.5,0.2C14.6,0.8,14.7,1,14.6,1.2z M14.8,0.3c-0.1-0.1-0.2-0.2-0.4-0.3
			c-0.3-0.1-0.6-0.1-0.9,0c-0.1,0.1-0.3,0.1-0.4,0.3c-0.1,0.1-0.2,0.2-0.3,0.4c-0.1,0.1-0.1,0.3-0.1,0.5c0,0.2,0,0.3,0.1,0.5
			c0.1,0.2,0.2,0.3,0.3,0.4c0.1,0.1,0.2,0.2,0.4,0.2c0.1,0,0.3,0.1,0.4,0.1c0.2,0,0.3,0,0.5-0.1c0.2-0.1,0.3-0.1,0.4-0.3
			c0.1-0.1,0.2-0.2,0.3-0.4c0.1-0.1,0.1-0.3,0.1-0.5c0-0.2,0-0.3-0.1-0.5C15,0.6,14.9,0.5,14.8,0.3z M4.6,1.2L4.6,1.2
			c0,0.2-0.1,0.4-0.2,0.5C4.3,1.8,4.1,1.9,3.9,1.9c-0.2,0-0.4-0.1-0.5-0.2C3.3,1.6,3.2,1.4,3.2,1.2c0-0.2,0.1-0.4,0.2-0.5
			c0.3-0.3,0.7-0.3,1,0c0,0,0,0,0,0C4.5,0.8,4.6,1,4.6,1.2z M4.8,0.3C4.6,0.2,4.5,0.1,4.4,0.1C4.1,0,3.7,0,3.4,0.1
			C3.3,0.1,3.2,0.2,3,0.3C2.9,0.5,2.8,0.6,2.8,0.7C2.7,0.9,2.7,1,2.7,1.2c0,0.2,0,0.4,0.1,0.5C2.9,1.8,3,2,3.1,2.1
			c0.1,0.1,0.2,0.2,0.4,0.2c0.1,0,0.3,0.1,0.4,0.1c0.2,0,0.3,0,0.5-0.1C4.5,2.2,4.7,2.1,4.8,2C4.9,1.9,4.9,1.8,5,1.6
			c0.1-0.1,0.1-0.3,0.1-0.5c0-0.2,0-0.3-0.1-0.4C4.9,0.6,4.9,0.5,4.8,0.3z M17.3,0.1v1.4L16,0.1h-0.5v2.2H16V0.8l1.4,1.5h0.4V0.1
			H17.3z M10.4,0.5h0.8v1.7h0.5V0.5h0.9V0.1h-2.2L10.4,0.5z M9.2,0.9L9.2,0.9c-0.4,0-0.6-0.1-0.6-0.2c0,0,0-0.1,0-0.1
			C8.8,0.5,9,0.5,9.2,0.5c0.3,0,0.6,0.1,0.8,0.3l0,0l0.3-0.4l0,0C10,0.1,9.6,0,9.2,0C8.5,0,8.1,0.3,8.1,0.7s0.6,0.6,1.1,0.7
			s0.6,0.1,0.6,0.2S9.6,1.9,9.3,1.9c-0.3,0-0.7-0.1-0.9-0.3l0,0L8,1.9l0,0c0.3,0.3,0.8,0.5,1.2,0.4c0.7,0,1.1-0.3,1.1-0.7
			S9.8,0.9,9.2,0.9z M7.2,1.2c0,0.3-0.2,0.6-0.5,0.7c0,0-0.1,0-0.1,0C6.3,1.9,6,1.7,6,1.3c0,0,0-0.1,0-0.1V0.1H5.5v1.2
			c-0.1,0.5,0.3,1,0.9,1.1c0.1,0,0.1,0,0.2,0c0.5,0.1,1-0.3,1.1-0.9c0-0.1,0-0.2,0-0.2V0.1H7.2L7.2,1.2z"/>
	</g>
</g>
</svg>
