<svg xmlns="http://www.w3.org/2000/svg" viewBox="0 0 9.81 9.79"><defs><style>.cls-1{fill:#fff;fill-rule:evenodd;}</style></defs><g id="Capa_2" data-name="Capa 2"><g id="Capa_1-2" data-name="Capa 1"><path class="cls-1" d="M4.05,2.49a.62.62,0,0,0-.92.07c-.62.89-.28,2.24.66,3.3s2.65,1.49,3.57.73c.24-.2.25-.63-.13-1a.67.67,0,0,0-1,0c-.11.17-.16.36-.53.22A3.42,3.42,0,0,1,4,4.21c-.21-.46.14-.41.31-.81a.73.73,0,0,0-.23-.91M5.15.81A3.85,3.85,0,1,1,3,7.84l-1.72.63.67-1.7a3.85,3.85,0,0,1,3.22-6Zm0-.81A4.66,4.66,0,1,1,2.89,8.73L0,9.79,1,6.84A4.58,4.58,0,0,1,.49,4.66,4.66,4.66,0,0,1,5.15,0Z"/></g></g></svg>