<svg xmlns="http://www.w3.org/2000/svg" viewBox="0 0 28.05 28.05"><defs><style>.cls-1{fill:#666;}</style></defs><g id="Capa_2" data-name="Capa 2"><g id="Capa_1-2" data-name="Capa 1"><path class="cls-1" d="M14,2.53c3.75,0,4.19,0,5.67.08a7.84,7.84,0,0,1,2.61.48A4.67,4.67,0,0,1,25,5.75a7.84,7.84,0,0,1,.48,2.61c.07,1.48.08,1.92.08,5.66s0,4.19-.08,5.67A7.84,7.84,0,0,1,25,22.3,4.67,4.67,0,0,1,22.3,25a7.84,7.84,0,0,1-2.61.48c-1.48.07-1.92.08-5.67.08s-4.18,0-5.66-.08A7.84,7.84,0,0,1,5.75,25,4.67,4.67,0,0,1,3.09,22.3a7.84,7.84,0,0,1-.48-2.61c-.07-1.48-.08-1.92-.08-5.67s0-4.18.08-5.66a7.84,7.84,0,0,1,.48-2.61A4.67,4.67,0,0,1,5.75,3.09a7.84,7.84,0,0,1,2.61-.48c1.48-.07,1.92-.08,5.66-.08M14,0C10.21,0,9.74,0,8.24.08a10.21,10.21,0,0,0-3.4.66A6.91,6.91,0,0,0,2.35,2.35,6.78,6.78,0,0,0,.74,4.84a10.21,10.21,0,0,0-.66,3.4C0,9.74,0,10.22,0,14s0,4.29.08,5.79a10.21,10.21,0,0,0,.66,3.4A6.78,6.78,0,0,0,2.35,25.7a7,7,0,0,0,2.49,1.61,10,10,0,0,0,3.4.65c1.5.07,2,.09,5.78.09s4.29,0,5.79-.09a10,10,0,0,0,3.4-.65,7.14,7.14,0,0,0,4.1-4.1,10,10,0,0,0,.65-3.4c.07-1.5.09-2,.09-5.79S28,9.74,28,8.24a10,10,0,0,0-.65-3.4,6.94,6.94,0,0,0-1.62-2.49A6.79,6.79,0,0,0,23.21.74a10.21,10.21,0,0,0-3.4-.66C18.31,0,17.83,0,14,0"/><path class="cls-1" d="M14,6.82A7.21,7.21,0,1,0,21.23,14,7.21,7.21,0,0,0,14,6.82M14,18.7A4.68,4.68,0,1,1,18.7,14,4.67,4.67,0,0,1,14,18.7"/><path class="cls-1" d="M23.19,6.54a1.68,1.68,0,1,1-1.68-1.68,1.68,1.68,0,0,1,1.68,1.68"/></g></g></svg>